<svg xmlns="http://www.w3.org/2000/svg" viewBox="0 0 109 46"><style>.st0{fill:#666}.st1{fill:red}</style><g id="logo_x5F_pc_1_"><path class="st0" d="M17.5 40.4c-.1.2-.3.5-.8 1-.5.6-.8.9-1 .9-.1 0-.2-.1-.2-.3 0-.5.2-.9.5-1.4.3-.6.7-.9 1.1-.9.2 0 .3.1.5.2l-.1.5zm1-1.7h-1.2c-.8 0-1.5.4-2.3 1.3-.7.8-1.1 1.6-1.2 2.4 0 .3 0 .6.2.9.2.3.4.4.7.4.4 0 .9-.3 1.4-.7.4-.4.7-.9 1-1.4h.1l-.7 2h1.6l1.4-4.9c-.2 0-.5.1-1 0zm10.4 1.7c-.1.2-.3.5-.8 1.1-.5.5-.8.8-1 .8-.1 0-.1-.1-.1-.3 0-.4.2-.9.5-1.4.3-.6.7-.8 1-.8.2 0 .3 0 .5.1l-.1.5zm.9-1.7h-1.1c-.8 0-1.5.4-2.3 1.2-.7.8-1.1 1.5-1.2 2.4 0 .3 0 .6.2.9.2.2.4.4.8.4.8 0 1.5-.7 2.2-2h.2c-.1.4-.2.7-.3 1.1-.2.5-.3.9-.5 1.2-.3.4-.6.5-.9.5-.6 0-1.2-.2-2-.6l.1 1.4c.4.1.9.1 1.5.1 1.7 0 2.8-.7 3.2-2.1l1.3-4.5c-.3 0-.7.1-1.2 0zm3.1 2.3c.1-.3.2-.5.4-.8s.5-.4.7-.4.3.1.3.4c-.1.5-.6.8-1.4.8zm.5 1.7c-.5 0-.8-.2-.8-.7.7 0 1.3-.2 1.9-.6.7-.4 1.1-1 1.2-1.6 0-.3-.1-.6-.3-.8s-.5-.3-.8-.3c-.9 0-1.7.3-2.4 1s-1.1 1.5-1.2 2.4c0 .5.1.9.5 1.2.3.3.8.4 1.3.4.7 0 1.5-.2 2.5-.5l.3-1.2c-.9.5-1.6.7-2.2.7zm7.3-3.8l-.3 1c-.4-.1-.7-.2-1-.2-.4 0-.7.1-.7.4 0 .1.1.3.3.5.4.3.6.5.6.6.2.3.3.6.3.9-.1.6-.3 1-.8 1.2-.4.2-.9.3-1.5.3-.5 0-1-.1-1.7-.3l.3-1.1c.6.3 1.1.4 1.4.4.1 0 .3 0 .4-.1.1-.1.2-.2.2-.3 0-.2-.1-.4-.3-.6l-.6-.6c-.2-.3-.3-.6-.3-.8.1-.5.3-.9.8-1.2.4-.2.9-.3 1.4-.3.3 0 .7.1 1.5.2zm8.3-2l-.3 1c-.4-.2-.7-.3-1-.3s-.5.1-.7.4c-.1.1-.2.4-.3.8h1.2l-.3.9h-1.2l-1.4 5h-1.7l1.7-5.8c.2-.6.6-1.2 1.1-1.5.5-.4 1.1-.6 1.7-.6.5-.1.8 0 1.2.1zm2 5c-.3.5-.7.8-1.1.8-.2 0-.4-.1-.5-.3s-.1-.4-.1-.6c0-.5.2-.9.4-1.3.3-.5.6-.8 1.1-.8.2 0 .4.1.5.3s.1.4.1.6c-.1.5-.2.9-.4 1.3zm1.6-2.8c-.3-.3-.8-.4-1.3-.4-.9 0-1.7.3-2.4 1s-1.1 1.5-1.2 2.4c0 .5.1.9.5 1.2.3.3.8.4 1.3.4.9 0 1.7-.3 2.4-1s1.1-1.5 1.2-2.4c0-.5-.2-.9-.5-1.2zm5.7-.3l-.5 1.5c-.1-.1-.4-.1-.5-.1-.3 0-.7.2-1.2.8-.5.5-.8.9-.9 1.2l-.4 1.5h-1.6l1.4-4.8h1.6l-.7 2.1h.1c.3-.5.6-1 1-1.4.5-.5 1-.8 1.4-.8.1-.1.2-.1.3 0zm6.4.1l-.3.9h-.8c-.1.4-.3.8-.4 1.2-.1.5-.2.9-.3 1.2 0 .3.1.5.3.5.1 0 .3-.1.5-.2l-.3 1c-.5.1-.9.2-1.2.2s-.6-.1-.8-.2c-.2-.2-.3-.4-.3-.8s.2-.9.3-1.5c.2-.5 1-3.1 1-3.1l1.7-.2-.3 1h.9zm7.7 2.1c.1-.3.2-.5.4-.8.2-.3.5-.4.7-.4s.3.1.3.4c-.1.5-.5.8-1.4.8zm.6 1.7c-.5 0-.8-.2-.8-.7.7 0 1.3-.2 1.9-.6.7-.4 1.1-1 1.2-1.6 0-.3-.1-.6-.3-.8-.2-.2-.5-.3-.8-.3-.9 0-1.7.3-2.4 1s-1.1 1.5-1.2 2.4c0 .5.1.9.5 1.2.3.3.8.4 1.3.4.7 0 1.5-.2 2.5-.5l.3-1.2c-.9.5-1.6.7-2.2.7zM88.3 41c.1-.3.2-.5.4-.8.2-.3.5-.4.7-.4s.3.1.3.4c-.1.5-.5.8-1.4.8zm.6 1.7c-.5 0-.8-.2-.8-.7.7 0 1.3-.2 1.9-.6.7-.4 1.1-1 1.2-1.6 0-.3-.1-.6-.3-.8-.2-.2-.5-.3-.8-.3-.9 0-1.7.3-2.4 1s-1.1 1.5-1.2 2.4c0 .5.1.9.5 1.2.3.3.8.4 1.3.4.7 0 1.5-.2 2.5-.5L91 42c-.8.5-1.6.7-2.1.7zm6.4-3.9l-.3.9h-.8c-.1.4-.3.9-.4 1.3-.1.5-.2.9-.3 1.2 0 .3.1.5.3.5.1 0 .3-.1.5-.2l-.3 1c-.5.1-.9.2-1.2.2-.3 0-.6-.1-.8-.2-.2-.2-.3-.4-.3-.8s.2-.9.3-1.5c.2-.5 1-3.1 1-3.1l1.7-.2-.3.9h.9zm3.5 0l-.3.9h-.8c-.1.4-.3.9-.4 1.3-.1.5-.2.9-.3 1.2 0 .3.1.5.3.5.1 0 .3-.1.5-.2l-.3 1c-.5.1-.9.2-1.2.2-.3 0-.6-.1-.8-.2-.2-.2-.3-.4-.3-.8s.1-.9.3-1.5c.1-.5 1-3.1 1-3.1l1.7-.2-.2.9h.8zm1.7 2.2c.1-.3.2-.5.4-.8.2-.3.5-.4.7-.4s.3.1.3.4c0 .5-.5.8-1.4.8zm.6 1.7c-.6 0-.8-.2-.8-.7.7 0 1.3-.2 1.9-.6.7-.4 1.1-1 1.2-1.6 0-.3-.1-.6-.3-.8-.2-.2-.5-.3-.8-.3-.9 0-1.7.3-2.4 1s-1.1 1.5-1.2 2.4c-.1.5.1.9.5 1.2.3.3.8.4 1.3.4.7 0 1.5-.2 2.5-.5l.3-1.2c-.9.5-1.6.7-2.2.7zM.1 41c-.2 1.9 1 3 3.2 3 1.2 0 2.4-.2 3.5-.4 0-.1.3-.9.4-1.2-.1 0-.2.1-.2.1-.9.2-1.9.5-2.7.5-1.3 0-2.1-.9-2-2.2.2-2 1.8-4.1 3.8-4.1.8 0 1.6.2 2.4.5.2-.2.4-1.1.5-1.3-.8-.2-1.7-.3-2.5-.3C2.6 35.6.3 38.7.1 41zm81.8-.8c.9 0 1.9.2 1.8 1.3-.1 1-1 1.3-1.8 1.3-.3 0-.5 0-.8-.1l.8-2.5zm1.1-3.4c.2-.1.4-.1.6-.1.5 0 1.1.1 1.1.7-.1 1.1-1.2 1.6-1.6 1.6h-.6l.5-2.2zm-4.1 6.9h3.9c.9 0 2.8-.6 2.9-2.3.1-1-.8-1.6-1.7-1.9 1.1-.3 2.4-1.1 2.5-2.3.1-1.6-1.6-1.5-2.8-1.5h-2.5l-2.3 8zm29.9-4.8l-.6 1.5c-.1-.1-.4-.1-.5-.1-.3 0-.7.2-1.2.8-.5.5-.8.9-.9 1.2l-.4 1.5h-1.6L105 39h1.6l-.7 2.1h.1c.3-.5.6-1 1-1.4.5-.5 1-.8 1.4-.8.2-.2.3-.1.4 0zm-84.9 4.7h-1.6s.8-2.7.9-3.2c0 0 0-.2-.1-.1-.1 0-.5.4-.9.9s-.7.8-.7 1l-.5 1.4h-1.6l1.4-4.9h1.6l-.7 2.1h.1c.3-.5.6-1 1-1.4.5-.5 1-.8 1.4-.8.3 0 .5.1.6.3.1.1.3.4.1 1l-1 3.7zm-13.1 0s.8-2.7.9-3.2c0 0 .1-.2-.1-.1-.1.1-.5.4-.9.9s-.7.8-.7 1l-.4 1.5H8l2-6.8h1.6c-.4 1.3-.8 2.7-1.3 4h.1c.3-.5.6-1 1-1.4.5-.5 1-.8 1.4-.8.3 0 .5.1.6.3.1.1.3.4.1 1l-1 3.6h-1.7zm56.7 0s.8-2.7.9-3.2c0 0 .1-.2-.1-.1-.1.1-.5.4-.9.9s-.7.8-.7 1l-.4 1.5h-1.6l2-6.8h1.6c-.4 1.3-.8 2.7-1.3 4 .3-.5.6-1 1-1.4.5-.5 1-.8 1.4-.8.3 0 .5.1.6.3.1.1.3.4.1 1l-1 3.6h-1.6z"/><path class="st1" d="M12.1 31.5H0L6.1 21h12.1l-6.1 10.5zm12.2 0h12.1L30.3 21H18.2l6.1 10.5zm0-21L18.2 0l-6.1 10.5L18.2 21l6.1-10.5z"/><path d="M41.8 27h4.9v-1.7h-4.9v-2.2h5.5v-1.8h-7.5v10.2h7.6v-1.8h-5.6V27zm-.1-14.9l2.1 7.6h2l2.2-7.6v7.6h1.9V9.5H47l-2.2 7.1-2.1-7.1h-2.9v10.2h1.9v-7.6zm44.7-2.6h2v10.2h-2V9.5zm1.7 11.8h2v10.2h-2V21.3zm18.5-11.8h2v10.2h-2V9.5zm-55.9 0h2v10.2h-2V9.5zm53.1 4h-4.1v-4h-2v10.2h2v-4.5h4.1v4.5h2V9.5h-2v4zm-48 6.2h2.1v-8.4h2.4V9.5h-7v1.8h2.5v8.4zm18.6 11.8h2.1v-8.4H79v-1.8h-7v1.8h2.4v8.4zM73 19.9c2.6 0 4.1-1.2 4.1-3.5v-7h-2v7.2c0 .9-.7 1.6-2 1.6-1.5 0-2-.9-2-1.6V9.5h-2v7c-.1 2.4 1.5 3.4 3.9 3.4zM57.6 27h4.8v-1.7h-4.8v-2.2H63v-1.8h-7.5v10.2h7.7v-1.8h-5.6V27zm22.3-7.3h2.9c1.9 0 3.1-1.1 3.1-2.7 0-1.3-.9-2.4-2-2.7.9-.2 1.6-1.1 1.6-2.3 0-1.5-1.1-2.5-3.2-2.5h-4.6v10.2h2.2zm2.4-1.6h-2.4v-2.9h2.4c.9 0 1.6.5 1.6 1.5-.1.8-.8 1.4-1.6 1.4zm.1-7c.6 0 1.2.5 1.2 1.2 0 .6-.4 1.3-1.3 1.3h-2.4v-2.5h2.5zm3.2 15.5c.9-.3 1.8-1 1.8-2.5 0-1.8-1.2-2.8-3.3-2.8h-4.6v10.2h2.1v-4h1.7c1.1 0 1.6.5 1.8 1.3.2.8.1 2 .3 2.7h2.1c-.2-.8-.3-1.8-.4-2.7 0-1.4-.7-1.9-1.5-2.2zm-4-.7v-2.8H84c.8 0 1.4.6 1.4 1.4 0 .6-.5 1.4-1.3 1.4h-2.5zm-31.5-4.6h-2v10.2h6.8v-1.8h-4.8v-8.4zm13.7-5.9c1.7.3 2.6.6 2.6 1.6 0 .7-.7 1.3-2 1.3s-2.1-.8-2.1-1.7h-2c0 1.8 1.1 3.4 4.1 3.4 2.8 0 4.1-1.5 4.1-3.2 0-1.6-1-2.6-2.9-3-1.8-.4-3-.4-3-1.6 0-.8.7-1.2 1.8-1.2 1.2 0 1.8.6 1.8 1.6h2c0-1.6-1.2-3.3-3.9-3.3-1.9 0-3.8 1.1-3.8 3.1 0 1.6 1.2 2.6 3.3 3zm28.6 0c1.6.3 2.6.6 2.6 1.6 0 .7-.7 1.3-2 1.3-1.4 0-2.1-.8-2.1-1.7h-2c0 1.8 1.1 3.4 4.1 3.4 2.8 0 4.1-1.5 4.1-3.2 0-1.6-1-2.6-2.9-3-1.8-.4-3-.4-3-1.6 0-.8.7-1.2 1.8-1.2 1.2 0 1.8.6 1.8 1.6h2c0-1.6-1.2-3.3-3.9-3.3-1.9 0-3.8 1.1-3.8 3.1 0 1.6 1.3 2.6 3.3 3z"/><path d="M67.8 29.9c-1.7 0-2.6-1.6-2.6-3.6 0-1.9.9-3.6 2.6-3.6 1.3 0 1.9.8 2.2 1.7h2.1c-.3-2-1.9-3.5-4.4-3.5-3.1 0-4.7 2.4-4.7 5.3s1.6 5.3 4.7 5.3c2.4 0 4.1-1.4 4.4-3.6H70c-.3 1.3-.9 2-2.2 2zm27.5 0c-1.7 0-2.6-1.6-2.6-3.6 0-1.9.9-3.6 2.6-3.6 1.3 0 1.9.8 2.2 1.7h2.1c-.3-2-1.9-3.5-4.4-3.5-3.1 0-4.7 2.4-4.7 5.3s1.6 5.3 4.7 5.3c2.4 0 4.1-1.4 4.4-3.6h-2.1c-.3 1.3-.9 2-2.2 2z"/></g></svg>
